<svg xmlns="http://www.w3.org/2000/svg" enable-background="new 0 0 64 64" viewBox="0 0 64 64" id="dice"><path fill="#fff" d="M27,3.4l-16,9.2c-3.1,1.8-5,5.1-5,8.7v21.4c0,3.6,1.9,6.9,5,8.7l16,9.2c3.1,1.8,6.9,1.8,10,0l16-9.2
		c3.1-1.8,5-5.1,5-8.7V21.3c0-3.6-1.9-6.9-5-8.7L37,3.4C33.9,1.6,30.1,1.6,27,3.4z"></path><path fill="#acbdc5" d="M12,14.3l5-2.9L15,8l-5,2.9C6.3,13,4,17,4,21.3v21.4C4,47,6.3,51,10,53.1l16,9.2c3.7,2.1,8.3,2.1,12,0l16-9.2
		c3.7-2.1,6-6.1,6-10.4V40h-3.5V24.9c0-3.1-3.3-5-6-3.5L36,29.7c-2.5,1.4-4,4.1-4,6.9v2.8c0,9.5-10.1,15.4-18.3,11.2l-1.7-1
		c-2.5-1.4-4-4.1-4-6.9V21.3C8,18.4,9.5,15.8,12,14.3z"></path><path fill="#314a52" d="M13,13.8l-2-3.5l15-8.7c3.7-2.1,8.3-2.1,12,0l16,9.2c3.7,2.1,6,6.1,6,10.4v21.4c0,4.3-2.3,8.3-6,10.4l-1,0.6
		l-2-3.5l1-0.6c2.5-1.4,4-4.1,4-6.9V21.3c0-2.9-1.5-5.5-4-6.9L36,5.1c-2.5-1.4-5.5-1.4-8,0L13,13.8z M12.7,33.5c1.1,2,3.2,2.9,4.7,2
		s1.7-3.2,0.6-5.2c-1.1-2-3.2-2.9-4.7-2C11.8,29.2,11.6,31.5,12.7,33.5z M50.9,28.3c-1.2-0.7-3,0-4,1.7s-0.7,3.5,0.5,4.2s3,0,4-1.7
		S52.1,29,50.9,28.3z M45.7,37.1c-1.2-0.7-3,0-4,1.7c-1,1.6-0.7,3.5,0.5,4.2c1.2,0.7,3,0,4-1.7S47,37.8,45.7,37.1z M37.1,51.7
		c1.2,0.7,3,0,4-1.7c1-1.6,0.7-3.5-0.5-4.2s-3,0-4,1.7S35.9,51,37.1,51.7z M27.3,46.5c-1.1-2-3.2-2.9-4.7-2
		c-1.5,0.9-1.7,3.2-0.6,5.2s3.2,2.9,4.7,2C28.2,50.8,28.4,48.5,27.3,46.5z"></path><path fill="#d7385e" d="M40,17c0,2.8-3.6,4-8,4c-4.4,0-8-1.2-8-4c0-2.8,3.6-5,8-5C36.4,12,40,14.2,40,17z"></path><path fill="#ff6c58" d="M39.8,15.9C39.8,15.9,39.8,16,39.8,15.9c0,1.2-3.5,2.1-7.8,2.1c-4.3,0-7.8-0.9-7.8-2c0,0,0-0.1,0-0.1
		C24.1,16.3,24,16.6,24,17c0,2.8,3.6,5,8,5c4.4,0,8-2.2,8-5C40,16.6,39.9,16.3,39.8,15.9z"></path></svg>